<?xml version="1.0" encoding="UTF-8"?><svg id="Layer_1" xmlns="http://www.w3.org/2000/svg" viewBox="0 0 739 462"><defs><style>.cls-1,.cls-2,.cls-3,.cls-4{fill:none;}.cls-5{fill:#055eaa;}.cls-2{stroke-linecap:round;}.cls-2,.cls-3,.cls-4{stroke:#055eaa;stroke-miterlimit:10;}.cls-2,.cls-4{stroke-width:2.43px;}.cls-3{stroke-width:1.55px;}</style></defs><path class="cls-5" d="m68.52,139.97c0-11.75.2-25.25.41-33.12h-.31c-2.35,13.19-6.23,36.49-10.73,58.87h-11.14c-3.37-20.85-7.36-45.69-9.61-59.08h-.41c.41,8.07.72,22.59.72,34.55v24.53h-11.24v-69.2h18.5c3.58,19.11,6.75,38.43,8.18,48.55h.1c1.43-9.4,5.72-30.25,9.3-48.55h18.09v69.2h-11.86v-25.76Z"/><path class="cls-5" d="m104.7,96.53v69.2h-12.37v-69.2h12.37Z"/><path class="cls-5" d="m116.96,165.72v-69.2h14c14.31,38.23,17.07,45.59,17.89,48.96h.1c-.51-8.28-.61-18.5-.61-29.85v-19.11h11.14v69.2h-13.49c-14.82-40.78-17.38-48.14-18.3-51.31h-.1c.51,8.59.51,18.7.51,31.17v20.14h-11.14Z"/><path class="cls-5" d="m181.86,148.35l-3.48,17.38h-12.37l16.05-69.2h16.05l16.15,69.2h-12.98l-3.37-17.38h-16.05Zm13.8-10.73c-2.56-13.29-4.6-23-5.72-29.54h-.31c-.82,6.34-3.07,16.76-5.62,29.54h11.65Z"/><path class="cls-5" d="m38.27,217.3v29.54h-12.27v-69.2h21.16c12.57,0,19.73,6.64,19.73,18.91,0,10.02-5.42,14.31-8.99,15.74,5.31,2.56,7.87,7.05,7.87,17.27v2.76c0,7.87.41,10.83.92,14.51h-11.96c-1.02-3.17-1.12-8.69-1.12-14.62v-2.45c0-9.3-2.15-12.47-10.02-12.47h-5.31Zm0-10.02h5.83c7.46,0,10.43-3.17,10.43-10.12,0-6.03-2.86-9.51-9.2-9.51h-7.05v19.62Z"/><path class="cls-5" d="m110.73,216.07h-22.28v20.14h24.94l-1.53,10.63h-35.57v-69.2h35.47v10.83h-23.3v16.87h22.28v10.73Z"/><path class="cls-5" d="m155.39,216.07h-22.28v20.14h24.94l-1.53,10.63h-35.57v-69.2h35.47v10.83h-23.3v16.87h22.28v10.73Z"/><path class="cls-5" d="m175.42,227.52c.61,5.72,2.96,10.73,9.3,10.73s8.28-3.78,8.28-8.99c0-5.62-2.76-8.99-11.45-13.08-11.86-5.62-16.56-10.63-16.56-20.95,0-11.04,7.15-18.6,19.62-18.6,15.64,0,19.42,10.53,19.62,19.52h-12.16c-.31-3.99-1.33-9.81-7.67-9.81-4.91,0-7.05,3.17-7.05,7.87,0,5.01,2.25,7.36,10.32,11.14,12.37,5.72,17.99,11.24,17.99,22.79,0,10.94-6.75,19.93-21.36,19.93-15.95,0-20.75-10.22-21.16-20.54h12.27Z"/><path class="cls-5" d="m26,258.76h12.37v58.67h23.71l-1.23,10.53H26v-69.2Z"/><path class="cls-5" d="m80.68,258.76v69.2h-12.37v-69.2h12.37Z"/><path class="cls-5" d="m92.84,258.76h21.06c12.06,0,18.6,6.64,18.6,17.58,0,8.69-4.09,12.98-7.97,14.41,4.91,1.94,10.02,6.44,10.02,16.87,0,13.18-8.59,20.34-20.85,20.34h-20.85v-69.2Zm18.09,27.6c7.67,0,9.71-2.96,9.71-8.89s-3.17-8.79-9.3-8.79h-6.34v17.68h5.93Zm-5.93,31.99h7.36c6.13,0,9.71-3.17,9.71-10.94,0-7.15-2.96-11.35-11.04-11.35h-6.03v22.28Z"/><path class="cls-5" d="m155.39,298.42v29.54h-12.27v-69.2h21.16c12.57,0,19.73,6.64,19.73,18.91,0,10.02-5.42,14.31-8.99,15.74,5.32,2.56,7.87,7.05,7.87,17.27v2.76c0,7.87.41,10.83.92,14.51h-11.96c-1.02-3.17-1.12-8.69-1.12-14.62v-2.45c0-9.3-2.15-12.47-10.02-12.47h-5.31Zm0-10.02h5.83c7.46,0,10.43-3.17,10.43-10.12,0-6.03-2.86-9.51-9.2-9.51h-7.05v19.62Z"/><path class="cls-5" d="m204.76,310.58l-3.48,17.38h-12.37l16.05-69.2h16.05l16.15,69.2h-12.98l-3.37-17.38h-16.05Zm13.8-10.73c-2.56-13.29-4.6-23-5.72-29.54h-.31c-.82,6.34-3.07,16.76-5.62,29.54h11.65Z"/><path class="cls-5" d="m255.45,298.42v29.54h-12.27v-69.2h21.16c12.57,0,19.73,6.64,19.73,18.91,0,10.02-5.42,14.31-8.99,15.74,5.31,2.56,7.87,7.05,7.87,17.27v2.76c0,7.87.41,10.83.92,14.51h-11.96c-1.02-3.17-1.12-8.69-1.12-14.62v-2.45c0-9.3-2.15-12.47-10.02-12.47h-5.31Zm0-10.02h5.83c7.46,0,10.43-3.17,10.43-10.12,0-6.03-2.86-9.51-9.2-9.51h-7.05v19.62Z"/><path class="cls-5" d="m305.22,327.95v-24.43c0-.82-.1-1.43-.41-2.25l-17.48-42.52h13.8c3.88,10.83,8.69,24.22,10.73,31.79,2.56-8.48,7.26-21.46,10.73-31.79h13.08l-17.58,42.62c-.2.51-.41,1.33-.41,2.35v24.22h-12.47Z"/><circle class="cls-4" cx="241.52" cy="142.98" r="6.83"/><circle class="cls-4" cx="305.61" cy="159.76" r="5.11"/><path class="cls-4" d="m243.45,153.4c-2.4.45-4.93.45-6.33-.05-1.64-.59-3.4-2.45-4.3-4.19-4.43,10.24-3.01,26.58,5.8,38.01,0,0,.71-2.85,3-4.36,2.17-1.42,5.03-1.73,5.03-1.73,0,0-3.64-4.08-4.58-14.75-.55-6.21.48-9.73,1.38-12.93Z"/><path class="cls-4" d="m241.55,132.77c1.89-.2,4.2.09,6.14,1.21,1.84,1.07,2.4,2.5,3.37,4.65,5.62-7.45,13.48-11.95,21.41-16.85-2.74-.62-4.61-1.99-6.11-3.88-1.45-1.82-1.82-4.3-1.82-5.85-7.82,5.23-15.84,10.78-23,20.72Z"/><path class="cls-4" d="m316.3,194.81c.48-1.29,2.16-6.45,2.47-14.26.35-8.87-4.91-17.44-4.91-17.44,0,0-1.03,2.63-3.25,3.95-1.83,1.09-5.61,1.38-5.61,1.38,0,0,3.3,6.08,2.9,10.91-.41,4.88-.05,4.33-2.56,10.8,0,0,3.4-.42,5.86.54,2.75,1.08,5.1,4.12,5.1,4.12Z"/><path class="cls-4" d="m297.03,156.91s1.86-3.79,5.71-4.89c-7.36-5.17-21.66-8.32-33.36-.65,7.41-3.56,20.99-3.06,27.65,5.54Z"/><path class="cls-4" d="m306.66,209.51c-9.36,11.39-18.87,16.66-20.9,18.18,0,0-.15-3.34-1.72-5.65-1.47-2.16-3.19-3.21-5.15-4,6.74-4.14,15.79-9.93,18.96-14.84,2.22,3.9,4.61,6.19,8.81,6.3Z"/><path class="cls-4" d="m282.87,194.75c-13.64,9.62-29.87,3.44-29.87,3.44,3.98-2.74,3.38-7.01,3.38-7.01,0,0,11.71,10.3,26.33,3.72l.16-.14Z"/><circle class="cls-4" cx="247.41" cy="189.99" r="5.75"/><circle class="cls-4" cx="307.09" cy="199.69" r="5.91"/><circle class="cls-4" cx="274.98" cy="112.05" r="6.83"/><path class="cls-4" d="m281.23,185.83c4.12-2.03,5.8-7.02,3.77-11.13-1.63-3.29-5.61-4.64-8.91-3.02"/><path class="cls-4" d="m290.92,174.31c.3-4.58-3.18-8.54-7.76-8.83-3.66-.24-6.83,2.54-7.07,6.21"/><path class="cls-4" d="m285.78,160.16c-3.82-2.55-8.98-1.52-11.53,2.3-2.04,3.05-1.21,7.18,1.84,9.22"/><path class="cls-4" d="m270.96,157.53c-4.12,2.03-5.8,7.02-3.77,11.13,1.63,3.29,5.61,4.64,8.91,3.02"/><path class="cls-4" d="m261.28,169.05c-.3,4.58,3.18,8.54,7.76,8.83,3.66.24,6.83-2.54,7.07-6.21"/><path class="cls-4" d="m266.41,183.2c3.82,2.55,8.98,1.52,11.53-2.3,2.04-3.05,1.21-7.18-1.84-9.22"/><path class="cls-2" d="m296.64,169.48c2.11,23.66-13.7,37.8-38.79,34.23-25.67-3.65-37.31-33.46-29.07-58.04,5.33-15.88,17.37-26.39,29.85-35.63,4.88-3.61,13.85-9.47,18.8-12.33"/><path class="cls-2" d="m264.41,132.33c13.95-9.06,28.49-13.71,39.2-12.59,12.35,1.3,20.38,6.54,19.45,16.54-.71,7.59-7.76,10.56-13.82,9.44-3.07-.57-9.19-4.12-8.48-11.4.49-4.97,5.2-7.47,9.83-6.6,5.33,1,6.93,8.51,2.07,9.87-2,.56-3.3-.94-3.5-1.83-.22-1.02.42-1.21.88-1.27.43-.05,1.13.54.56.93"/><path class="cls-2" d="m282.87,153.84c14.82,3.08,21.78,17.63,18.6,32.2-4.18,19.13-21.74,26-30.65,30.76-8.12,4.33-29.27,10.5-39.03,4.13-9.27-6.05-5.91-17.96,1.14-20.06,5.14-1.53,12.03.08,11.99,7.25-.04,7.72-10.35,8.18-11.03,2.49-.66-5.49,5.82-5.12,5.91-3.49.02.36.12,1.11-.66,1.3-.78.19-1.39-.56-.98-1.21"/><path class="cls-2" d="m260.36,135.46c7.08-5.16,13.17-9.24,23.48-7.97,9.75,1.2,9.18,7.54,6.47,9.37-5.37,3.62-9.33-3.76-4.66-5.37,0,0,1.3-.39,1.49.8.19,1.19-1.09,1.34-1.34.76"/><path class="cls-2" d="m266.7,246.73c19.06-12.19,56.08-33.17,56.31-65.35.18-24.84-18.76-39.23-39.5-39.23-9.24,0-23.24,5.89-27.45,18.65-3.36,10.21,1.05,27.45,19.04,27.06,10.82-.24,19.16-11.91,15.06-21.7"/><path class="cls-2" d="m285.76,208.41c-10.16,7.53-21.63,13.65-35.63,17.28-14,3.64-23.36,5.36-24.33,12.2-.61,4.32,1.84,7.72,5.84,7.56,5.02-.2,6.88-6.62,3.75-8.46-3.21-1.88-5.96,1.01-5.26,2.76.28.7,1.16,1.24,2,.68.72-.48.39-1.65-.58-1.4"/><path class="cls-2" d="m261.2,169.32c1.52-13.7,15.59-17.58,23.48-15.03,6.9,2.23,11.29,8.03,11.94,14.85.24,2.46.04,5.37-.81,7.99-4.1,12.7-17.7,18.14-30.05,14.22-17.03-5.4-21.48-21.1-18.14-36.07,1.47-6.59,6.59-14.85,13.02-20.04,7.58-6.12,15.53-11.14,35.36-17.02,19.83-5.88,27.04-10.2,27.04-15.53,0-5.6-5.44-8.13-8.81-4.97s0,7.22,2.88,6.3c0,0,.63-.16,1.29-.82.66-.66.6-2.1-.73-1.88-.29.05-.96.54-.3,1.13"/><circle class="cls-2" cx="276.1" cy="171.68" r="15.08"/><circle class="cls-4" cx="276.1" cy="171.68" r="2.24"/><rect class="cls-1" x="391.62" y="260.08" width="330.38" height="83.11"/><polyline class="cls-3" points="470.91 333.23 480.88 333.23 480.88 311.05 490.97 311.05 490.97 333.23 497.8 333.23 497.8 270.86 507.77 270.86 507.77 333.23 514.48 333.23 514.48 288.32 524.58 288.32 524.58 333.23 534.49 333.23"/><path class="cls-5" d="m557.88,298.63h-3.88c-.12-.87-.21-1.51-.24-2.42-1.27,2.25-3.25,2.91-5.65,2.91-5.95,0-8.1-5.29-8.1-14.54,0-10.39,3.51-14.86,9.62-14.86,7.71,0,8.14,6.61,8.22,8.3h-5.04c-.08-1.15-.33-3.99-3.34-3.99-3.28,0-4.2,4.38-4.2,10.54,0,6.64.78,10.28,4.03,10.28,2.7,0,3.52-2.07,3.52-6.26v-1.6h-3.83v-4.35h8.9v15.99Z"/><path class="cls-5" d="m569.46,286.49v12.14h-5.07v-28.46h8.72c5.17,0,8.11,2.7,8.11,7.78,0,4.12-2.2,5.89-3.69,6.48,2.2,1.03,3.25,2.9,3.25,7.11v1.14c0,3.23.15,4.44.38,5.96h-4.93c-.42-1.3-.49-3.56-.49-6.01v-1.04c0-3.8-.87-5.09-4.09-5.09h-2.18Zm0-4.13h2.39c3.08,0,4.28-1.32,4.28-4.2,0-2.45-1.17-3.87-3.78-3.87h-2.89v8.07Z"/><path class="cls-5" d="m591.86,291.47l-1.41,7.16h-5.11l6.59-28.46h6.62l6.66,28.46h-5.35l-1.42-7.16h-6.59Zm5.68-4.42c-1.06-5.45-1.91-9.43-2.36-12.15h-.12c-.35,2.62-1.25,6.9-2.3,12.15h4.78Z"/><path class="cls-5" d="m609.73,270.16h7.42c7.32,0,10.17,4.69,10.17,13.65,0,9.61-2.72,14.82-10.56,14.82h-7.02v-28.46Zm5.14,24.3h1.82c3.98,0,5.35-3,5.35-10.63,0-6.55-1.22-9.43-5.31-9.43h-1.86v20.06Z"/><path class="cls-5" d="m638.28,270.16v19.58c0,2.33.58,5.1,3.71,5.1s3.68-2.33,3.68-5.07v-19.62h5.11v19.69c0,5.11-1.99,9.26-8.87,9.26s-8.74-3.91-8.74-9.27v-19.69h5.11Z"/><path class="cls-5" d="m661.4,291.47l-1.41,7.16h-5.11l6.59-28.46h6.62l6.66,28.46h-5.35l-1.42-7.16h-6.59Zm5.68-4.42c-1.06-5.45-1.91-9.43-2.36-12.15h-.12c-.35,2.62-1.25,6.9-2.3,12.15h4.78Z"/><path class="cls-5" d="m681.09,274.63h-6.08v-4.46h17.27v4.46h-6.08v24h-5.11v-24Z"/><path class="cls-5" d="m711.32,285.98h-9.14v8.27h10.26l-.63,4.39h-14.66v-28.46h14.6v4.46h-9.57v6.93h9.14v4.42Z"/><path class="cls-5" d="m557.59,325.94c-.13,1.44-.67,8.78-8.57,8.78s-9.02-7.11-9.02-14.76c0-9.22,2.7-14.65,9.33-14.65,7.55,0,8.13,6.47,8.25,8.75h-5.04c-.08-.97-.15-4.43-3.29-4.43s-3.98,3.92-3.98,10.43c0,5.37.54,10.41,3.84,10.41,3.04,0,3.28-3.44,3.41-4.53h5.08Z"/><path class="cls-5" d="m577.04,321.57h-9.14v8.27h10.26l-.63,4.39h-14.66v-28.46h14.6v4.46h-9.57v6.93h9.14v4.42Z"/><path class="cls-5" d="m583.36,334.22v-28.46h5.79c5.89,15.73,7.02,18.73,7.36,20.13h.04c-.24-3.42-.25-7.61-.25-12.27v-7.85h4.55v28.46h-5.55c-6.08-16.77-7.16-19.79-7.53-21.1h-.04c.21,3.51.22,7.7.22,12.8v8.3h-4.59Z"/><path class="cls-5" d="m611.76,310.22h-6.08v-4.46h17.27v4.46h-6.08v24h-5.11v-24Z"/><path class="cls-5" d="m641.99,321.57h-9.14v8.27h10.26l-.63,4.39h-14.66v-28.46h14.6v4.46h-9.57v6.93h9.14v4.42Z"/><path class="cls-5" d="m653.38,322.09v12.14h-5.07v-28.46h8.72c5.17,0,8.11,2.7,8.11,7.78,0,4.12-2.2,5.89-3.69,6.48,2.2,1.03,3.25,2.9,3.25,7.11v1.14c0,3.23.15,4.44.38,5.96h-4.93c-.42-1.3-.49-3.56-.49-6.01v-1.04c0-3.8-.87-5.09-4.09-5.09h-2.19Zm0-4.13h2.39c3.08,0,4.28-1.32,4.28-4.2,0-2.45-1.17-3.87-3.78-3.87h-2.89v8.07Z"/><polygon class="cls-5" points="418 310.71 418 323.29 406.78 310.71 400.98 310.71 400.98 310.71 400.98 334.19 407.44 334.19 407.44 321.6 418.5 334.19 424.46 334.19 424.46 310.71 418 310.71"/><path class="cls-5" d="m447.94,300.84v-4.87h0s0,0,0,0v-8.22h-6.32s-.14,0-.14,0v13.09c0,.58-.09,1.1-.27,1.57-.23.6-.61,1.13-1.14,1.58-.99.85-2.43,1.36-3.86,1.36h0s0,0,0,0c0,0,0,0,0,0h0s0,0,0,0c-1.43,0-2.87-.51-3.86-1.36-.53-.46-.91-.98-1.14-1.58-.18-.47-.27-.99-.27-1.57v-13.09h-.14s-6.32,0-6.32,0v8.22s0,0,0,0h0v6.44h0c0,5.19,5.61,9.32,11.44,9.4.06,0,.12,0,.18,0,.02,0,.05,0,.07,0,.01,0,.03,0,.04,0h0s0,0,0,0c0,0,0,0,0,0,0,0,0,0,0,0h0s.03,0,.04,0c.02,0,.05,0,.07,0,.06,0,.12,0,.18,0,5.83-.08,11.44-4.09,11.44-9.4h0v-1.57Z"/><path class="cls-5" d="m417.43,302.41c-1.04,1.74-2.9,2.9-5.03,2.93-.03,0-.06,0-.08,0-3.31,0-6-2.76-6-6.16,0-3.4,2.69-6.16,6-6.16.03,0,.06,0,.08,0,2.13.03,3.99,1.2,5.03,2.93h7.04c0-5.3-5.58-9.3-11.4-9.4-.01,0-.03,0-.04,0-.06,0-.12,0-.18,0-.02,0-.05,0-.07,0-.01,0-.03,0-.04,0h0s0,0,0,0c0,0,0,0,0,0,0,0,0,0,0,0h0s-.03,0-.04,0c-.02,0-.05,0-.07,0-.06,0-.12,0-.18,0h-.47c-4.62,0-8.66,2.48-10.86,6.19-1.12,1.88-1.76,4.08-1.76,6.43h0s0,0,0,0c0,2.35.64,4.55,1.76,6.43,2.2,3.71,6.24,6.19,10.86,6.19h.47c.06,0,.12,0,.18,0,.02,0,.05,0,.07,0,.01,0,.03,0,.04,0h0s0,0,0,0c0,0,0,0,0,0,0,0,0,0,0,0h0s.03,0,.04,0c.02,0,.05,0,.07,0,.06,0,.12,0,.18,0,.01,0,.03,0,.04,0,5.82-.1,11.4-4.1,11.4-9.4h-7.04Z"/><polygon class="cls-5" points="441.49 310.71 436.2 321.48 430.92 310.71 424.46 310.71 432.97 328.07 432.97 334.19 439.43 334.19 439.43 328.07 447.94 310.71 441.49 310.71"/></svg>